# Blender v2.79 (sub 0) OBJ File: 'Wall_Version_01.blend'
# www.blender.org
mtllib Turret_Version_01.mtl
o Turret_Cylinder
v 0.000000 -0.100000 2.750000
v 0.000000 0.100000 2.750000
v 0.048773 -0.100000 2.754804
v 0.048773 0.100000 2.754804
v 0.095671 -0.100000 2.769030
v 0.095671 0.100000 2.769030
v 0.138893 -0.100000 2.792133
v 0.138893 0.100000 2.792133
v 0.176777 -0.100000 2.823223
v 0.176777 0.100000 2.823223
v 0.207867 -0.100000 2.861107
v 0.207867 0.100000 2.861107
v 0.230970 -0.100000 2.904329
v 0.230970 0.100000 2.904329
v 0.245196 -0.100000 2.951227
v 0.245196 0.100000 2.951227
v 0.250000 -0.100000 3.000000
v 0.250000 0.100000 3.000000
v 0.245196 -0.100000 3.048773
v 0.245196 0.100000 3.048773
v 0.230970 -0.100000 3.095671
v 0.230970 0.100000 3.095671
v 0.207867 -0.100000 3.138893
v 0.207867 0.100000 3.138893
v 0.176777 -0.100000 3.176777
v 0.176777 0.100000 3.176777
v 0.138893 -0.100000 3.207867
v 0.138893 0.100000 3.207867
v 0.095671 -0.100000 3.230970
v 0.095671 0.100000 3.230970
v 0.048773 -0.100000 3.245196
v 0.048773 0.100000 3.245196
v -0.000000 -0.100000 3.250000
v -0.000000 0.100000 3.250000
v -0.048773 -0.100000 3.245196
v -0.048773 0.100000 3.245196
v -0.095671 -0.100000 3.230970
v -0.095671 0.100000 3.230970
v -0.138893 -0.100000 3.207867
v -0.138893 0.100000 3.207867
v -0.176777 -0.100000 3.176777
v -0.176777 0.100000 3.176777
v -0.207868 -0.100000 3.138892
v -0.207868 0.100000 3.138892
v -0.230970 -0.100000 3.095671
v -0.230970 0.100000 3.095671
v -0.245196 -0.100000 3.048772
v -0.245196 0.100000 3.048772
v -0.250000 -0.100000 3.000000
v -0.250000 0.100000 3.000000
v -0.245196 -0.100000 2.951227
v -0.245196 0.100000 2.951227
v -0.230970 -0.100000 2.904329
v -0.230970 0.100000 2.904329
v -0.207867 -0.100000 2.861107
v -0.207867 0.100000 2.861107
v -0.176776 -0.100000 2.823223
v -0.176776 0.100000 2.823223
v -0.138892 -0.100000 2.792132
v -0.138892 0.100000 2.792132
v -0.095671 -0.100000 2.769030
v -0.095671 0.100000 2.769030
v -0.048772 -0.100000 2.754804
v -0.048772 0.100000 2.754804
v 0.100000 0.050000 3.150000
v 0.100000 0.050000 3.450000
v 0.109755 0.049039 3.150000
v 0.109755 0.049039 3.450000
v 0.119134 0.046194 3.150000
v 0.119134 0.046194 3.450000
v 0.127779 0.041573 3.150000
v 0.127779 0.041573 3.450000
v 0.135355 0.035355 3.150000
v 0.135355 0.035355 3.450000
v 0.141573 0.027779 3.150000
v 0.141573 0.027779 3.450000
v 0.146194 0.019134 3.150000
v 0.146194 0.019134 3.450000
v 0.149039 0.009755 3.150000
v 0.149039 0.009755 3.450000
v 0.150000 0.000000 3.150000
v 0.150000 -0.000000 3.450000
v 0.149039 -0.009755 3.150000
v 0.149039 -0.009755 3.450000
v 0.146194 -0.019134 3.150000
v 0.146194 -0.019134 3.450000
v 0.141573 -0.027779 3.150000
v 0.141573 -0.027779 3.450000
v 0.135355 -0.035355 3.150000
v 0.135355 -0.035355 3.450000
v 0.127779 -0.041573 3.150000
v 0.127779 -0.041573 3.450000
v 0.119134 -0.046194 3.150000
v 0.119134 -0.046194 3.450000
v 0.109755 -0.049039 3.150000
v 0.109755 -0.049039 3.450000
v 0.100000 -0.050000 3.150000
v 0.100000 -0.050000 3.450000
v 0.090245 -0.049039 3.150000
v 0.090245 -0.049039 3.450000
v 0.080866 -0.046194 3.150000
v 0.080866 -0.046194 3.450000
v 0.072221 -0.041573 3.150000
v 0.072221 -0.041573 3.450000
v 0.064645 -0.035355 3.150000
v 0.064645 -0.035355 3.450000
v 0.058426 -0.027778 3.150000
v 0.058426 -0.027778 3.450000
v 0.053806 -0.019134 3.150000
v 0.053806 -0.019134 3.450000
v 0.050961 -0.009754 3.150000
v 0.050961 -0.009754 3.450000
v 0.050000 0.000000 3.150000
v 0.050000 0.000000 3.450000
v 0.050961 0.009755 3.150000
v 0.050961 0.009755 3.450000
v 0.053806 0.019134 3.150000
v 0.053806 0.019134 3.450000
v 0.058427 0.027779 3.150000
v 0.058427 0.027779 3.450000
v 0.064645 0.035355 3.150000
v 0.064645 0.035355 3.450000
v 0.072222 0.041574 3.150000
v 0.072222 0.041574 3.450000
v 0.080866 0.046194 3.150000
v 0.080866 0.046194 3.450000
v 0.090246 0.049039 3.150000
v 0.090246 0.049039 3.450000
v -0.100000 0.050000 3.150000
v -0.100000 0.050000 3.450000
v -0.090245 0.049039 3.150000
v -0.090245 0.049039 3.450000
v -0.080866 0.046194 3.150000
v -0.080866 0.046194 3.450000
v -0.072221 0.041573 3.150000
v -0.072221 0.041573 3.450000
v -0.064645 0.035355 3.150000
v -0.064645 0.035355 3.450000
v -0.058427 0.027779 3.150000
v -0.058427 0.027779 3.450000
v -0.053806 0.019134 3.150000
v -0.053806 0.019134 3.450000
v -0.050961 0.009755 3.150000
v -0.050961 0.009755 3.450000
v -0.050000 0.000000 3.150000
v -0.050000 -0.000000 3.450000
v -0.050961 -0.009755 3.150000
v -0.050961 -0.009755 3.450000
v -0.053806 -0.019134 3.150000
v -0.053806 -0.019134 3.450000
v -0.058427 -0.027779 3.150000
v -0.058427 -0.027779 3.450000
v -0.064645 -0.035355 3.150000
v -0.064645 -0.035355 3.450000
v -0.072221 -0.041573 3.150000
v -0.072221 -0.041573 3.450000
v -0.080866 -0.046194 3.150000
v -0.080866 -0.046194 3.450000
v -0.090246 -0.049039 3.150000
v -0.090246 -0.049039 3.450000
v -0.100000 -0.050000 3.150000
v -0.100000 -0.050000 3.450000
v -0.109755 -0.049039 3.150000
v -0.109755 -0.049039 3.450000
v -0.119134 -0.046194 3.150000
v -0.119134 -0.046194 3.450000
v -0.127779 -0.041573 3.150000
v -0.127779 -0.041573 3.450000
v -0.135355 -0.035355 3.150000
v -0.135355 -0.035355 3.450000
v -0.141574 -0.027778 3.150000
v -0.141574 -0.027778 3.450000
v -0.146194 -0.019134 3.150000
v -0.146194 -0.019134 3.450000
v -0.149039 -0.009754 3.150000
v -0.149039 -0.009754 3.450000
v -0.150000 0.000000 3.150000
v -0.150000 0.000000 3.450000
v -0.149039 0.009755 3.150000
v -0.149039 0.009755 3.450000
v -0.146194 0.019134 3.150000
v -0.146194 0.019134 3.450000
v -0.141573 0.027779 3.150000
v -0.141573 0.027779 3.450000
v -0.135355 0.035355 3.150000
v -0.135355 0.035355 3.450000
v -0.127778 0.041574 3.150000
v -0.127778 0.041574 3.450000
v -0.119134 0.046194 3.150000
v -0.119134 0.046194 3.450000
v -0.109754 0.049039 3.150000
v -0.109754 0.049039 3.450000
vn 0.0980 0.0000 -0.9952
vn 0.2903 0.0000 -0.9569
vn 0.4714 0.0000 -0.8819
vn 0.6344 0.0000 -0.7730
vn 0.7730 0.0000 -0.6344
vn 0.8819 0.0000 -0.4714
vn 0.9569 0.0000 -0.2903
vn 0.9952 0.0000 -0.0980
vn 0.9952 0.0000 0.0980
vn 0.9569 0.0000 0.2903
vn 0.8819 0.0000 0.4714
vn 0.7730 0.0000 0.6344
vn 0.6344 0.0000 0.7730
vn 0.4714 0.0000 0.8819
vn 0.2903 0.0000 0.9569
vn 0.0980 0.0000 0.9952
vn -0.0980 0.0000 0.9952
vn -0.2903 0.0000 0.9569
vn -0.4714 0.0000 0.8819
vn -0.6344 0.0000 0.7730
vn -0.7730 0.0000 0.6344
vn -0.8819 0.0000 0.4714
vn -0.9569 0.0000 0.2903
vn -0.9952 0.0000 0.0980
vn -0.9952 0.0000 -0.0980
vn -0.9569 0.0000 -0.2903
vn -0.8819 0.0000 -0.4714
vn -0.7730 0.0000 -0.6344
vn -0.6344 0.0000 -0.7730
vn -0.4714 0.0000 -0.8819
vn 0.0000 1.0000 -0.0000
vn -0.2903 0.0000 -0.9569
vn -0.0980 0.0000 -0.9952
vn 0.0000 -1.0000 -0.0000
vn 0.0980 0.9952 0.0000
vn 0.2903 0.9569 0.0000
vn 0.4714 0.8819 0.0000
vn 0.6344 0.7730 0.0000
vn 0.7730 0.6344 0.0000
vn 0.8819 0.4714 0.0000
vn 0.9569 0.2903 0.0000
vn 0.9952 0.0980 0.0000
vn 0.9952 -0.0980 -0.0000
vn 0.9569 -0.2903 -0.0000
vn 0.8819 -0.4714 -0.0000
vn 0.7730 -0.6344 -0.0000
vn 0.6344 -0.7730 -0.0000
vn 0.4714 -0.8819 -0.0000
vn 0.2903 -0.9569 -0.0000
vn 0.0980 -0.9952 -0.0000
vn -0.0980 -0.9952 -0.0000
vn -0.2903 -0.9569 -0.0000
vn -0.4714 -0.8819 -0.0000
vn -0.6344 -0.7730 -0.0000
vn -0.7730 -0.6344 -0.0000
vn -0.8819 -0.4714 -0.0000
vn -0.9569 -0.2903 -0.0000
vn -0.9952 -0.0980 -0.0000
vn -0.9952 0.0980 0.0000
vn -0.9569 0.2903 0.0000
vn -0.8819 0.4714 0.0000
vn -0.7730 0.6344 0.0000
vn -0.6344 0.7730 0.0000
vn -0.4714 0.8819 0.0000
vn -0.0000 0.0000 1.0000
vn -0.2903 0.9569 0.0000
vn -0.0980 0.9952 0.0000
vn -0.0000 0.0000 -1.0000
usemtl None
s off
f 1//1 2//1 4//1 3//1
f 3//2 4//2 6//2 5//2
f 5//3 6//3 8//3 7//3
f 7//4 8//4 10//4 9//4
f 9//5 10//5 12//5 11//5
f 11//6 12//6 14//6 13//6
f 13//7 14//7 16//7 15//7
f 15//8 16//8 18//8 17//8
f 17//9 18//9 20//9 19//9
f 19//10 20//10 22//10 21//10
f 21//11 22//11 24//11 23//11
f 23//12 24//12 26//12 25//12
f 25//13 26//13 28//13 27//13
f 27//14 28//14 30//14 29//14
f 29//15 30//15 32//15 31//15
f 31//16 32//16 34//16 33//16
f 33//17 34//17 36//17 35//17
f 35//18 36//18 38//18 37//18
f 37//19 38//19 40//19 39//19
f 39//20 40//20 42//20 41//20
f 41//21 42//21 44//21 43//21
f 43//22 44//22 46//22 45//22
f 45//23 46//23 48//23 47//23
f 47//24 48//24 50//24 49//24
f 49//25 50//25 52//25 51//25
f 51//26 52//26 54//26 53//26
f 53//27 54//27 56//27 55//27
f 55//28 56//28 58//28 57//28
f 57//29 58//29 60//29 59//29
f 59//30 60//30 62//30 61//30
f 4//31 2//31 64//31 62//31 60//31 58//31 56//31 54//31 52//31 50//31 48//31 46//31 44//31 42//31 40//31 38//31 36//31 34//31 32//31 30//31 28//31 26//31 24//31 22//31 20//31 18//31 16//31 14//31 12//31 10//31 8//31 6//31
f 61//32 62//32 64//32 63//32
f 63//33 64//33 2//33 1//33
f 1//34 3//34 5//34 7//34 9//34 11//34 13//34 15//34 17//34 19//34 21//34 23//34 25//34 27//34 29//34 31//34 33//34 35//34 37//34 39//34 41//34 43//34 45//34 47//34 49//34 51//34 53//34 55//34 57//34 59//34 61//34 63//34
f 65//35 66//35 68//35 67//35
f 67//36 68//36 70//36 69//36
f 69//37 70//37 72//37 71//37
f 71//38 72//38 74//38 73//38
f 73//39 74//39 76//39 75//39
f 75//40 76//40 78//40 77//40
f 77//41 78//41 80//41 79//41
f 79//42 80//42 82//42 81//42
f 81//43 82//43 84//43 83//43
f 83//44 84//44 86//44 85//44
f 85//45 86//45 88//45 87//45
f 87//46 88//46 90//46 89//46
f 89//47 90//47 92//47 91//47
f 91//48 92//48 94//48 93//48
f 93//49 94//49 96//49 95//49
f 95//50 96//50 98//50 97//50
f 97//51 98//51 100//51 99//51
f 99//52 100//52 102//52 101//52
f 101//53 102//53 104//53 103//53
f 103//54 104//54 106//54 105//54
f 105//55 106//55 108//55 107//55
f 107//56 108//56 110//56 109//56
f 109//57 110//57 112//57 111//57
f 111//58 112//58 114//58 113//58
f 113//59 114//59 116//59 115//59
f 115//60 116//60 118//60 117//60
f 117//61 118//61 120//61 119//61
f 119//62 120//62 122//62 121//62
f 121//63 122//63 124//63 123//63
f 123//64 124//64 126//64 125//64
f 68//65 66//65 128//65 126//65 124//65 122//65 120//65 118//65 116//65 114//65 112//65 110//65 108//65 106//65 104//65 102//65 100//65 98//65 96//65 94//65 92//65 90//65 88//65 86//65 84//65 82//65 80//65 78//65 76//65 74//65 72//65 70//65
f 125//66 126//66 128//66 127//66
f 127//67 128//67 66//67 65//67
f 65//68 67//68 69//68 71//68 73//68 75//68 77//68 79//68 81//68 83//68 85//68 87//68 89//68 91//68 93//68 95//68 97//68 99//68 101//68 103//68 105//68 107//68 109//68 111//68 113//68 115//68 117//68 119//68 121//68 123//68 125//68 127//68
f 129//35 130//35 132//35 131//35
f 131//36 132//36 134//36 133//36
f 133//37 134//37 136//37 135//37
f 135//38 136//38 138//38 137//38
f 137//39 138//39 140//39 139//39
f 139//40 140//40 142//40 141//40
f 141//41 142//41 144//41 143//41
f 143//42 144//42 146//42 145//42
f 145//43 146//43 148//43 147//43
f 147//44 148//44 150//44 149//44
f 149//45 150//45 152//45 151//45
f 151//46 152//46 154//46 153//46
f 153//47 154//47 156//47 155//47
f 155//48 156//48 158//48 157//48
f 157//49 158//49 160//49 159//49
f 159//50 160//50 162//50 161//50
f 161//51 162//51 164//51 163//51
f 163//52 164//52 166//52 165//52
f 165//53 166//53 168//53 167//53
f 167//54 168//54 170//54 169//54
f 169//55 170//55 172//55 171//55
f 171//56 172//56 174//56 173//56
f 173//57 174//57 176//57 175//57
f 175//58 176//58 178//58 177//58
f 177//59 178//59 180//59 179//59
f 179//60 180//60 182//60 181//60
f 181//61 182//61 184//61 183//61
f 183//62 184//62 186//62 185//62
f 185//63 186//63 188//63 187//63
f 187//64 188//64 190//64 189//64
f 132//65 130//65 192//65 190//65 188//65 186//65 184//65 182//65 180//65 178//65 176//65 174//65 172//65 170//65 168//65 166//65 164//65 162//65 160//65 158//65 156//65 154//65 152//65 150//65 148//65 146//65 144//65 142//65 140//65 138//65 136//65 134//65
f 189//66 190//66 192//66 191//66
f 191//67 192//67 130//67 129//67
f 129//68 131//68 133//68 135//68 137//68 139//68 141//68 143//68 145//68 147//68 149//68 151//68 153//68 155//68 157//68 159//68 161//68 163//68 165//68 167//68 169//68 171//68 173//68 175//68 177//68 179//68 181//68 183//68 185//68 187//68 189//68 191//68
