# Blender v2.79 (sub 0) OBJ File: 'Wall_Version_01.blend'
# www.blender.org
mtllib Wall_Version_01.mtl
o Wall_Plane
v -0.500000 0.000000 0.500000
v 0.500000 0.000000 0.500000
v -0.500000 0.000000 -0.500000
v 0.500000 0.000000 -0.500000
v -0.500000 0.100000 -0.500000
v -0.500000 0.100000 0.500000
v 0.500000 0.100000 0.500000
v 0.500000 0.100000 -0.500000
v -0.500000 0.100000 0.450000
v 0.500000 0.100000 0.450000
v 0.500000 0.100000 -0.450000
v -0.500000 0.100000 -0.450000
v -0.500000 0.800000 -0.450000
v -0.500000 0.800000 0.450000
v 0.500000 0.800000 0.450000
v 0.500000 0.800000 -0.450000
v -0.500000 0.800000 0.400000
v 0.500000 0.800000 0.400000
v 0.500000 0.800000 -0.400000
v -0.500000 0.800000 -0.400000
v -0.500000 0.900000 -0.400000
v -0.500000 0.900000 0.400000
v 0.500000 0.900000 0.400000
v 0.500000 0.900000 -0.400000
v -0.450000 1.000000 -0.350000
v -0.450000 1.000000 0.350000
v 0.450000 1.000000 0.350000
v 0.450000 1.000000 -0.350000
v 0.500000 0.900000 -0.450000
v -0.500000 0.900000 -0.450000
v 0.500000 1.000000 -0.450000
v -0.500000 1.000000 -0.450000
v 0.500000 0.900000 0.450000
v -0.500000 0.900000 0.450000
v 0.500000 1.000000 0.450000
v -0.500000 1.000000 0.450000
v 0.500000 0.200000 0.450000
v -0.500000 0.200000 0.450000
v -0.500000 0.200000 -0.450000
v 0.500000 0.200000 -0.450000
v -0.150000 0.800000 0.450000
v -0.150000 0.800000 0.400000
v -0.150000 0.200000 0.450000
v -0.250000 0.800000 0.450000
v -0.250000 0.800000 0.400000
v -0.250000 0.200000 0.450000
v -0.150000 0.300000 0.450000
v -0.250000 0.300000 0.450000
v -0.150000 0.300000 0.400000
v -0.150000 0.800000 0.400000
v -0.250000 0.800000 0.400000
v -0.250000 0.300000 0.400000
v 0.150000 0.800000 -0.450000
v 0.150000 0.200000 -0.450000
v 0.250000 0.200000 -0.450000
v 0.250000 0.800000 -0.450000
v 0.150000 0.300000 -0.450000
v 0.250000 0.300000 -0.450000
v 0.250000 0.800000 -0.400000
v 0.150000 0.800000 -0.400000
v 0.150000 0.300000 -0.400000
v 0.250000 0.300000 -0.400000
v -0.500000 1.000000 -0.400000
v -0.500000 1.000000 0.400000
v 0.500000 1.000000 0.400000
v 0.500000 1.000000 -0.400000
v -0.450000 0.950000 -0.350000
v -0.450000 0.950000 0.350000
v 0.450000 0.950000 0.350000
v 0.450000 0.950000 -0.350000
vn 0.0000 -1.0000 0.0000
vn 0.0000 1.0000 0.0000
vn 1.0000 0.0000 0.0000
vn -1.0000 0.0000 0.0000
vn 0.0000 0.0000 -1.0000
vn 0.0000 0.0000 1.0000
usemtl None
s off
f 1//1 3//1 4//1 2//1
f 12//2 11//2 8//2 5//2
f 2//3 4//3 8//3 11//3 10//3 7//3
f 3//4 1//4 6//4 9//4 12//4 5//4
f 4//5 3//5 5//5 8//5
f 1//6 2//6 7//6 6//6
f 6//2 7//2 10//2 9//2
f 43//6 37//6 15//6 41//6 47//6
f 16//2 56//2 59//2 19//2
f 39//4 38//4 14//4 17//4 20//4 13//4
f 54//5 39//5 13//5 53//5 57//5
f 37//3 40//3 16//3 19//3 18//3 15//3
f 41//2 15//2 18//2 42//2
f 19//5 20//5 21//5 24//5
f 24//1 21//1 30//1 29//1
f 18//3 19//3 24//3 23//3
f 17//6 45//6 42//6 18//6 23//6 22//6
f 20//4 17//4 22//4 21//4
f 28//6 25//6 67//6 70//6
f 23//3 65//3 35//3 33//3
f 23//3 24//3 66//3 65//3
f 21//4 22//4 64//4 63//4
f 29//5 30//5 32//5 31//5
f 21//4 63//4 32//4 30//4
f 66//3 24//3 29//3 31//3
f 63//2 66//2 31//2 32//2
f 34//6 33//6 35//6 36//6
f 22//1 23//1 33//1 34//1
f 64//4 22//4 34//4 36//4
f 65//2 64//2 36//2 35//2
f 10//3 11//3 40//3 37//3
f 11//5 12//5 39//5 54//5 55//5 40//5
f 12//4 9//4 38//4 39//4
f 9//6 10//6 37//6 43//6 46//6 38//6
f 48//2 47//2 49//2 52//2
f 38//6 46//6 48//6 44//6 14//6
f 14//2 44//2 45//2 17//2
f 46//6 43//6 47//6 48//6
f 52//6 49//6 50//6 51//6
f 44//3 48//3 52//3 51//3
f 47//4 41//4 50//4 49//4
f 56//4 58//4 62//4 59//4
f 40//5 55//5 58//5 56//5 16//5
f 55//5 54//5 57//5 58//5
f 62//5 61//5 60//5 59//5
f 58//2 57//2 61//2 62//2
f 57//3 53//3 60//3 61//3
f 53//2 13//2 20//2 60//2
f 26//2 25//2 63//2 64//2
f 27//2 26//2 64//2 65//2
f 28//2 27//2 65//2 66//2
f 25//2 28//2 66//2 63//2
f 68//2 69//2 70//2 67//2
f 26//5 27//5 69//5 68//5
f 27//4 28//4 70//4 69//4
f 25//3 26//3 68//3 67//3
