# Blender v2.79 (sub 0) OBJ File: 'Wall_Version_01.blend'
# www.blender.org
mtllib WallCorner_Version_01.mtl
o WallCorner_Plane.001
v 0.500000 0.000000 0.500000
v 1.500000 0.000000 0.500000
v 0.500000 0.000000 -0.500000
v 1.500000 0.000000 -0.500000
v 0.500000 0.000000 0.450000
v 1.500000 0.000000 0.450000
v 1.450000 0.000000 0.500000
v 1.450000 0.000000 -0.500000
v 1.450000 0.000000 0.450000
v 0.500000 0.100000 0.450000
v 0.500000 0.100000 0.500000
v 1.450000 0.100000 0.500000
v 1.500000 0.100000 0.500000
v 1.500000 0.100000 0.450000
v 1.500000 0.100000 -0.500000
v 1.450000 0.100000 -0.500000
v 0.500000 0.100000 -0.500000
v 1.450000 0.100000 0.450000
v 1.500000 0.100000 -0.450000
v 0.500000 0.100000 -0.450000
v 1.450000 0.100000 -0.450000
v 0.550000 0.100000 -0.500000
v 0.550000 0.100000 0.450000
v 0.550000 0.100000 0.500000
v 0.550000 0.100000 -0.450000
v 0.500000 0.800000 -0.450000
v 0.500000 0.800000 0.450000
v 0.550000 0.800000 0.450000
v 1.450000 0.800000 -0.450000
v 1.450000 0.800000 -0.500000
v 1.450000 0.800000 0.450000
v 0.550000 0.800000 -0.450000
v 0.550000 0.800000 -0.500000
v 0.500000 0.800000 -0.400000
v 0.550000 0.800000 -0.400000
v 0.500000 0.800000 0.400000
v 1.450000 0.800000 0.400000
v 0.550000 0.800000 0.400000
v 0.600000 0.800000 -0.500000
v 0.600000 0.800000 -0.450000
v 0.600000 0.800000 -0.400000
v 1.400000 0.800000 -0.500000
v 1.400000 0.800000 0.450000
v 1.400000 0.800000 -0.450000
v 1.400000 0.800000 0.400000
v 0.550000 0.900000 0.400000
v 0.550000 0.900000 -0.400000
v 0.500000 0.900000 -0.400000
v 0.600000 0.900000 -0.400000
v 0.500000 0.900000 0.400000
v 1.400000 0.900000 -0.500000
v 0.600000 0.900000 -0.500000
v 1.400000 0.900000 -0.450000
v 0.600000 0.900000 -0.450000
v 1.400000 0.900000 0.400000
v 0.500000 1.000000 -0.400000
v 0.500000 1.000000 0.400000
v 1.400000 1.000000 -0.500000
v 0.600000 1.000000 -0.500000
v 0.500000 1.000000 0.450000
v 0.500000 0.900000 0.450000
v 0.550000 0.900000 0.450000
v 0.550000 1.000000 0.450000
v 1.400000 0.900000 0.450000
v 1.400000 1.000000 0.450000
v 1.450000 1.000000 -0.450000
v 1.450000 0.900000 -0.450000
v 1.450000 0.900000 -0.500000
v 1.450000 1.000000 -0.500000
v 1.450000 0.900000 0.400000
v 1.450000 1.000000 0.400000
v 1.450000 0.900000 0.450000
v 1.450000 1.000000 0.450000
v 0.550000 0.900000 -0.500000
v 0.600000 0.900000 -0.500000
v 0.550000 1.000000 -0.500000
v 0.600000 1.000000 -0.500000
v 0.500000 1.000000 -0.450000
v 0.500000 0.900000 -0.450000
v 0.550000 0.900000 -0.450000
v 0.600000 0.900000 -0.450000
v 0.650000 1.000000 0.350000
v 0.650000 1.000000 -0.350000
v 1.350000 1.000000 -0.350000
v 1.350000 1.000000 0.350000
v 0.550000 1.000000 0.400000
v 0.550000 1.000000 -0.450000
v 1.400000 1.000000 -0.450000
v 1.400000 1.000000 0.400000
v 0.650000 0.950000 0.350000
v 0.650000 0.950000 -0.350000
v 1.350000 0.950000 -0.350000
v 1.350000 0.950000 0.350000
v 1.400000 0.100000 0.450000
v 1.450000 0.100000 0.400000
v 0.850000 0.100000 0.450000
v 0.850000 0.800000 0.450000
v 0.750000 0.100000 0.450000
v 0.750000 0.800000 0.450000
v 1.450000 0.100000 0.150000
v 1.450000 0.800000 0.150000
v 1.450000 0.800000 0.250000
v 1.450000 0.100000 0.250000
v 0.850000 0.300000 0.450000
v 0.750000 0.300000 0.450000
v 1.450000 0.300000 0.150000
v 1.450000 0.300000 0.250000
v 0.750000 0.800000 0.400000
v 0.850000 0.800000 0.400000
v 0.850000 0.300000 0.400000
v 0.750000 0.300000 0.400000
v 1.400000 0.300000 0.150000
v 1.400000 0.800000 0.150000
v 1.400000 0.800000 0.250000
v 1.400000 0.300000 0.250000
vn 0.0000 -1.0000 0.0000
vn 0.0000 1.0000 0.0000
vn -1.0000 0.0000 0.0000
vn 0.0000 0.0000 1.0000
vn 1.0000 0.0000 0.0000
vn 0.0000 0.0000 -1.0000
usemtl None
s off
f 9//1 8//1 4//1 6//1
f 7//1 9//1 6//1 2//1
f 1//1 5//1 9//1 7//1
f 5//1 3//1 8//1 9//1
f 21//2 19//2 15//2 16//2
f 12//2 13//2 14//2 18//2
f 24//2 12//2 18//2 94//2 96//2 98//2 23//2
f 22//3 25//3 32//3 33//3
f 1//4 7//4 12//4 24//4 11//4
f 2//5 6//5 14//5 13//5
f 8//6 3//6 17//6 22//6 16//6
f 7//4 2//4 13//4 12//4
f 4//6 8//6 16//6 15//6
f 3//3 5//3 10//3 20//3 17//3
f 6//5 4//5 15//5 19//5 14//5
f 5//3 1//3 11//3 10//3
f 25//6 20//6 26//6 32//6
f 18//2 14//2 19//2 21//2 100//2 103//2 95//2
f 16//6 22//6 33//6 39//6 42//6 30//6
f 20//2 25//2 22//2 17//2
f 11//2 24//2 23//2 10//2
f 44//2 29//2 30//2 42//2
f 102//2 114//2 45//2 37//2
f 34//2 35//2 32//2 26//2
f 10//4 23//4 28//4 27//4
f 18//4 31//4 43//4 94//4
f 20//3 10//3 27//3 36//3 34//3 26//3
f 21//5 16//5 30//5 29//5
f 98//4 105//4 99//4 28//4 23//4
f 42//6 39//6 52//6 51//6
f 45//5 44//5 53//5 55//5
f 43//2 31//2 37//2 45//2
f 27//2 28//2 38//2 36//2
f 45//2 109//2 97//2 43//2
f 44//5 42//5 51//5 53//5
f 35//2 41//2 40//2 32//2
f 32//2 40//2 39//2 33//2
f 46//4 38//4 45//4 55//4
f 35//6 34//6 48//6 47//6
f 36//4 38//4 46//4 50//4
f 53//1 67//1 70//1 55//1
f 89//2 65//2 73//2 71//2
f 87//3 76//3 74//3 80//3
f 65//2 89//2 86//2 63//2
f 58//2 88//2 66//2 69//2
f 40//3 41//3 49//3 54//3
f 64//1 62//1 46//1 55//1
f 41//6 35//6 47//6 49//6
f 39//3 40//3 54//3 52//3
f 66//5 71//5 70//5 67//5
f 65//4 63//4 62//4 64//4
f 34//3 36//3 50//3 48//3
f 87//2 78//2 57//2 86//2
f 87//2 88//2 58//2 76//2
f 51//6 52//6 59//6 58//6
f 65//4 64//4 72//4 73//4
f 48//3 50//3 57//3 56//3
f 53//1 51//1 68//1 67//1
f 80//6 79//6 78//6 87//6
f 61//4 62//4 63//4 60//4
f 57//3 50//3 61//3 60//3
f 86//2 57//2 60//2 63//2
f 50//1 46//1 62//1 61//1
f 70//5 71//5 73//5 72//5
f 67//5 68//5 69//5 66//5
f 88//2 89//2 71//2 66//2
f 64//1 55//1 70//1 72//1
f 51//6 58//6 69//6 68//6
f 75//6 74//6 76//6 77//6
f 81//1 80//1 74//1 75//1
f 49//1 47//1 80//1 81//1
f 48//3 56//3 78//3 79//3
f 47//1 48//1 79//1 80//1
f 85//3 84//3 92//3 93//3
f 82//2 83//2 87//2 86//2
f 83//2 84//2 88//2 87//2
f 84//2 85//2 89//2 88//2
f 85//2 82//2 86//2 89//2
f 90//2 93//2 92//2 91//2
f 83//5 82//5 90//5 91//5
f 82//6 85//6 93//6 90//6
f 84//4 83//4 91//4 92//4
f 18//5 95//5 37//5 31//5
f 100//5 21//5 29//5 101//5 106//5
f 94//4 43//4 97//4 104//4 96//4
f 99//5 105//5 111//5 108//5
f 102//6 107//6 115//6 114//6
f 95//5 103//5 107//5 102//5 37//5
f 96//4 104//4 105//4 98//4
f 103//5 100//5 106//5 107//5
f 110//4 109//4 108//4 111//4
f 105//2 104//2 110//2 111//2
f 104//3 97//3 109//3 110//3
f 28//2 99//2 108//2 38//2
f 115//5 112//5 113//5 114//5
f 29//2 44//2 113//2 101//2
f 106//4 101//4 113//4 112//4
f 107//2 106//2 112//2 115//2
